<?xml version="1.0" encoding="UTF-8" standalone="no"?>
<!-- Created with Inkscape (http://www.inkscape.org/) -->

<svg
   xmlns:osb="http://www.openswatchbook.org/uri/2009/osb"
   xmlns:dc="http://purl.org/dc/elements/1.1/"
   xmlns:cc="http://creativecommons.org/ns#"
   xmlns:rdf="http://www.w3.org/1999/02/22-rdf-syntax-ns#"
   xmlns:svg="http://www.w3.org/2000/svg"
   xmlns="http://www.w3.org/2000/svg"
   xmlns:sodipodi="http://sodipodi.sourceforge.net/DTD/sodipodi-0.dtd"
   xmlns:inkscape="http://www.inkscape.org/namespaces/inkscape"
   width="35.116676mm"
   height="23.461309mm"
   viewBox="0 0 35.116676 23.461311"
   version="1.1"
   id="svg8"
   inkscape:version="0.92.4 5da689c313, 2019-01-14"
   sodipodi:docname="logo.svg">
  <defs
     id="defs2">
    <linearGradient
       id="linearGradient6907"
       osb:paint="solid">
      <stop
         style="stop-color:#000000;stop-opacity:1;"
         offset="0"
         id="stop6905" />
    </linearGradient>
  </defs>
  <sodipodi:namedview
     id="base"
     pagecolor="#ffffff"
     bordercolor="#666666"
     borderopacity="1.0"
     inkscape:pageopacity="0.0"
     inkscape:pageshadow="2"
     inkscape:zoom="2.8650595"
     inkscape:cx="60.085734"
     inkscape:cy="33.939477"
     inkscape:document-units="mm"
     inkscape:current-layer="layer1"
     showgrid="true"
     inkscape:window-width="1362"
     inkscape:window-height="729"
     inkscape:window-x="0"
     inkscape:window-y="18"
     inkscape:window-maximized="0"
     fit-margin-top="5"
     fit-margin-left="5"
     fit-margin-bottom="5"
     fit-margin-right="5"
     inkscape:snap-global="true"
     inkscape:snap-bbox="true"
     inkscape:bbox-nodes="true"
     inkscape:snap-bbox-edge-midpoints="true"
     inkscape:snap-bbox-midpoints="true"
     inkscape:bbox-paths="true"
     inkscape:object-paths="true"
     inkscape:snap-intersection-paths="true"
     inkscape:object-nodes="true"
     inkscape:snap-smooth-nodes="true"
     inkscape:snap-midpoints="true"
     inkscape:snap-object-midpoints="true"
     inkscape:snap-center="true"
     inkscape:snap-text-baseline="true">
    <inkscape:grid
       type="xygrid"
       id="grid815"
       originx="-124.91397"
       originy="-205.09123" />
  </sodipodi:namedview>
  <metadata
     id="metadata5">
    <rdf:RDF>
      <cc:Work
         rdf:about="">
        <dc:format>image/svg+xml</dc:format>
        <dc:type
           rdf:resource="http://purl.org/dc/dcmitype/StillImage" />
        <dc:title></dc:title>
      </cc:Work>
    </rdf:RDF>
  </metadata>
  <g
     inkscape:label="black"
     inkscape:groupmode="layer"
     id="layer1"
     transform="translate(-124.91398,-68.447494)"
     style="display:inline;opacity:1">
    <path
       style="display:inline;fill:none;fill-rule:evenodd;stroke:#000000;stroke-width:0.5;stroke-linecap:round;stroke-linejoin:round;stroke-miterlimit:4;stroke-dasharray:none;stroke-opacity:1"
       d="m 130.96875,86.656279 1.32292,-1.32292 h 2.64583 l 2.64584,-2.64583 h -2.64584 l -1.32291,1.32291 v 1.32292 h -1.32292 l -1.32292,1.32292"
       id="path6921-8"
       inkscape:connector-curvature="0"
       sodipodi:nodetypes="ccccccccc" />
    <path
       style="fill:none;fill-rule:evenodd;stroke:#000000;stroke-width:0.5;stroke-linecap:round;stroke-linejoin:round;stroke-miterlimit:4;stroke-dasharray:none;stroke-opacity:1"
       d="m 149.48959,82.687535 h -1.32292 l -1.32292,1.32292 -2.64583,-10e-6 v -1.32291 h -5.29167"
       id="path6988"
       inkscape:connector-curvature="0"
       sodipodi:nodetypes="cccccc" />
    <path
       style="color:#000000;font-style:normal;font-variant:normal;font-weight:normal;font-stretch:normal;font-size:medium;line-height:normal;font-family:sans-serif;font-variant-ligatures:normal;font-variant-position:normal;font-variant-caps:normal;font-variant-numeric:normal;font-variant-alternates:normal;font-feature-settings:normal;text-indent:0;text-align:start;text-decoration:none;text-decoration-line:none;text-decoration-style:solid;text-decoration-color:#000000;letter-spacing:normal;word-spacing:normal;text-transform:none;writing-mode:lr-tb;direction:ltr;text-orientation:mixed;dominant-baseline:auto;baseline-shift:baseline;text-anchor:start;white-space:normal;shape-padding:0;clip-rule:nonzero;display:inline;overflow:visible;visibility:visible;opacity:1;isolation:auto;mix-blend-mode:normal;color-interpolation:sRGB;color-interpolation-filters:linearRGB;solid-color:#000000;solid-opacity:1;vector-effect:none;fill:#000000;fill-opacity:1;fill-rule:evenodd;stroke:none;stroke-width:0.5;stroke-linecap:round;stroke-linejoin:round;stroke-miterlimit:4;stroke-dasharray:none;stroke-dashoffset:0;stroke-opacity:1;color-rendering:auto;image-rendering:auto;shape-rendering:auto;text-rendering:auto;enable-background:accumulate"
       d="m 155.03033,78.97406 c -0.0273,-0.321361 -0.50499,-0.297159 -0.49971,0.02532 v 1.072285 h -8.76018 V 78.99938 c 5e-5,-0.137954 -0.11165,-0.249879 -0.2496,-0.250113 h -5.29115 c -0.0665,-4.93e-4 -0.1305,0.02554 -0.17777,0.07235 l -2.57245,2.57245 h -3.76153 l -1.17564,-1.176153 v -1.115177 l 1.17564,-1.177708 h 1.21853 1.32447 c 0.14099,0.0021 0.25584,-0.112736 0.25373,-0.25373 -0.002,-0.137958 -0.11577,-0.248042 -0.25373,-0.24598 h -1.32447 -1.32188 c -0.0662,3.29e-4 -0.12958,0.02691 -0.17622,0.0739 l -1.32395,1.3224 c -0.0468,0.04726 -0.0729,0.111238 -0.0724,0.177766 v 1.322401 c -4.8e-4,0.06653 0.0256,0.130502 0.0724,0.177765 l 1.32395,1.321886 c 0.0469,0.04641 0.11024,0.0724 0.17622,0.0723 h 3.96875 c 0.0665,5.04e-4 0.13048,-0.02551 0.17776,-0.0723 l 2.57194,-2.571939 h 4.93768 v 1.072288 c 2.4e-4,0.137955 0.11216,0.24965 0.25012,0.249597 h 9.25938 c 0.13795,4.7e-5 0.24987,-0.111646 0.25011,-0.249597 v -1.322401 c 4.3e-4,-0.0084 4.3e-4,-0.01689 0,-0.02532 z m -1.31826,0.02119 c -0.002,-0.137958 -0.11577,-0.248042 -0.25373,-0.24598 h -3.96875 c -0.33397,-4.91e-4 -0.33397,0.500717 0,0.500226 h 3.96875 c 0.1412,0.0021 0.25613,-0.113051 0.25373,-0.254246 z m 0,2.644799 c -0.002,-0.137958 -0.11577,-0.248042 -0.25373,-0.24598 h -2.64687 c -0.34566,-0.01275 -0.34566,0.512463 0,0.49971 h 2.64687 c 0.14099,0.0021 0.25584,-0.112736 0.25373,-0.25373 z m -0.004,-3.970816 c -0.002,-0.06384 -0.0274,-0.124669 -0.0724,-0.170016 l -2.64635,-2.646349 c -0.0473,-0.0468 -0.11124,-0.07284 -0.17776,-0.07235 h -1.30432 c -0.006,-2.07e-4 -0.0117,-2.07e-4 -0.0176,0 h -1.21905 l -1.25005,-1.250053 c -0.23556,-0.24844 -0.6019,0.117913 -0.35346,0.353467 l 1.29087,1.291394 c 0.0431,0.05991 0.1104,0.09773 0.18397,0.103352 0.001,1.1e-5 0.003,1.1e-5 0.004,0 0.001,1.1e-5 0.003,1.1e-5 0.004,0 0.006,9.08e-4 0.0117,0.0016 0.0176,0.0021 h 1.07229 v 1.072287 c -8e-5,0.06674 0.0265,0.13075 0.0739,0.177766 l 1.3224,1.321885 c 0.0468,0.0463 0.1099,0.07229 0.1757,0.07234 h 2.64686 c 0.1402,-2.01e-4 0.25284,-0.11563 0.2496,-0.255797 z m -0.85331,-0.243914 h -1.93941 l -1.17616,-1.176155 v -0.96842 h 0.96893 z m -3.11144,4.21473 c -0.002,-0.137958 -0.11577,-0.248042 -0.25373,-0.24598 h -5.04103 v -1.072285 c 5e-5,-0.138158 -0.11196,-0.250169 -0.25012,-0.250116 h -2.64635 c -0.066,-7.9e-5 -0.12932,0.02593 -0.17621,0.07235 l -1.24954,1.250051 h -1.22111 c -0.34566,-0.01275 -0.34566,0.512463 0,0.49971 h 1.32446 c 0.0658,-4.2e-5 0.12893,-0.02602 0.1757,-0.0723 l 1.25006,-1.250056 h 2.29288 v 1.072286 c -5e-5,0.138151 0.11196,0.250157 0.25011,0.25011 h 5.29115 c 0.14099,0.0021 0.25584,-0.112736 0.25373,-0.25373 z m -1.3224,-5.291151 c -0.001,-0.07122 -0.0328,-0.138514 -0.0868,-0.185002 -0.0565,-0.05096 -0.13318,-0.07341 -0.20826,-0.06098 h -1.28312 c -0.3456,-0.01269 -0.3456,0.512408 0,0.499713 h 1.07435 v 0.822688 h -2.14664 v -2.394686 c 0.0127,-0.345658 -0.51246,-0.345658 -0.49971,0 v 2.644283 c -5e-5,0.138153 0.11196,0.25016 0.25011,0.250113 h 2.6045 c 0.0783,0.01328 0.15833,-0.01146 0.21549,-0.06666 0.052,-0.04818 0.0811,-0.116175 0.0801,-0.187068 -4e-4,-0.01249 -0.002,-0.02492 -0.004,-0.03721 v -1.2392 c 0.003,-0.01517 0.004,-0.03057 0.004,-0.04599 z m 0,2.646352 c -0.002,-0.137958 -0.11577,-0.248042 -0.25373,-0.24598 h -1.32446 c -0.33397,-4.91e-4 -0.33397,0.500717 0,0.500226 h 1.32446 c 0.1412,0.0021 0.25613,-0.113051 0.25373,-0.254246 z m -2.65241,-5.292701 c -0.006,-0.21759 -0.26823,-0.323864 -0.42426,-0.172082 l -1.24954,1.250053 h -0.002 -1.13998 c -0.051,-0.01686 -0.10608,-0.01686 -0.15709,0 h -1.16531 c -0.0508,-0.01674 -0.10573,-0.01674 -0.15658,0 h -1.20561 c -0.0866,-0.01365 -0.1741,0.0191 -0.23047,0.0863 l -1.25367,1.254704 c -0.0411,0.02275 -0.0749,0.05659 -0.0977,0.09767 l -1.27951,1.280025 c -0.15543,0.157196 -0.0454,0.423966 0.1757,0.425812 h 1.28054 c 0.0275,0.0046 0.0557,0.0046 0.0832,0 h 1.24127 c 0.0274,0.0046 0.0553,0.0046 0.0827,0 h 1.23972 c 0.0274,0.0046 0.0553,0.0046 0.0827,0 h 1.2392 c 0.0275,0.0046 0.0557,0.0046 0.0832,0 h 1.28313 c 0.13815,4.7e-5 0.25016,-0.11196 0.25011,-0.250113 v -1.321884 -1.219047 l 1.24954,-1.250053 c 0.047,-0.04849 0.0723,-0.113912 0.0703,-0.181385 z m -1.82056,1.578197 v 1.072288 1.072285 h -0.82424 v -2.144575 z m -0.8201,-1.578197 c -0.002,-0.138164 -0.11609,-0.248333 -0.25425,-0.24598 h -3.96875 c -0.066,4.67e-4 -0.12919,0.02703 -0.1757,0.0739 l -2.57194,2.572451 h -3.33623 c -0.0665,-4.93e-4 -0.1305,0.02554 -0.17777,0.07235 l -2.64635,2.646351 c -0.24823,0.235564 0.11791,0.601701 0.35347,0.353465 l 2.574,-2.572451 h 3.33624 c 0.0657,8.1e-5 0.12884,-0.02572 0.17569,-0.07183 l 2.57246,-2.57452 h 3.86488 c 0.1412,0.0024 0.25636,-0.112528 0.25425,-0.25373 z m -0.50385,1.578195 v 2.144573 h -0.82269 v -2.144573 z m -1.3224,0 v 2.144573 h -0.82217 v -2.144573 z m -1.3224,0.353468 v 1.791105 h -0.82424 v -0.966865 z m -0.8201,3.361036 c -0.002,-0.138164 -0.11609,-0.248333 -0.25425,-0.24598 h -5.29063 c -0.13816,-5.3e-5 -0.25017,0.111957 -0.25012,0.250113 v 1.322401 c 2.4e-4,0.137955 0.11216,0.24965 0.25012,0.249597 h 3.96875 c 0.3456,0.01269 0.3456,-0.512408 0,-0.499713 h -3.71916 v -0.822172 h 5.04104 c 0.1414,0.0024 0.25666,-0.112843 0.25425,-0.254246 z m -0.50385,-2.037085 v 0.467154 h -0.46716 z"
       id="path6917-0"
       inkscape:connector-curvature="0"
       sodipodi:nodetypes="ccccccccccccccccccccccccccccccccccccccccccccccccccccccccccccccccccccccccccccccccccccccccccccccccccccccccccccccccccccccccccccccccccccccccccccccccccccccccccccccccccccccccccccccccccccccccccccccccccccccccccc" />
  </g>
</svg>
