<?xml version="1.0" encoding="UTF-8" standalone="no"?>
<!-- Created with Inkscape (http://www.inkscape.org/) -->

<svg
   xmlns:dc="http://purl.org/dc/elements/1.1/"
   xmlns:cc="http://creativecommons.org/ns#"
   xmlns:rdf="http://www.w3.org/1999/02/22-rdf-syntax-ns#"
   xmlns:svg="http://www.w3.org/2000/svg"
   xmlns="http://www.w3.org/2000/svg"
   xmlns:sodipodi="http://sodipodi.sourceforge.net/DTD/sodipodi-0.dtd"
   xmlns:inkscape="http://www.inkscape.org/namespaces/inkscape"
   width="52.576202mm"
   height="30.115189mm"
   viewBox="0 0 52.576202 30.115189"
   version="1.1"
   id="svg8"
   inkscape:version="0.92.4 5da689c313, 2019-01-14"
   sodipodi:docname="bram-logo.svg">
  <defs
     id="defs2" />
  <sodipodi:namedview
     id="base"
     pagecolor="#ffffff"
     bordercolor="#666666"
     borderopacity="1.0"
     inkscape:pageopacity="0.0"
     inkscape:pageshadow="2"
     inkscape:zoom="2"
     inkscape:cx="116.15947"
     inkscape:cy="20.845339"
     inkscape:document-units="mm"
     inkscape:current-layer="layer2"
     showgrid="false"
     inkscape:snap-center="false"
     inkscape:snap-object-midpoints="true"
     inkscape:snap-smooth-nodes="true"
     inkscape:snap-intersection-paths="true"
     inkscape:object-paths="true"
     inkscape:snap-midpoints="true"
     fit-margin-top="5"
     fit-margin-left="5"
     fit-margin-bottom="5"
     fit-margin-right="5"
     inkscape:snap-text-baseline="true"
     inkscape:snap-global="false"
     inkscape:window-width="1916"
     inkscape:window-height="1043"
     inkscape:window-x="0"
     inkscape:window-y="18"
     inkscape:window-maximized="0">
    <inkscape:grid
       type="xygrid"
       id="grid815"
       originx="-18.683854"
       originy="-154.92767" />
  </sodipodi:namedview>
  <metadata
     id="metadata5">
    <rdf:RDF>
      <cc:Work
         rdf:about="">
        <dc:format>image/svg+xml</dc:format>
        <dc:type
           rdf:resource="http://purl.org/dc/dcmitype/StillImage" />
        <dc:title></dc:title>
      </cc:Work>
    </rdf:RDF>
  </metadata>
  <g
     inkscape:label="Calque 1"
     inkscape:groupmode="layer"
     id="layer1"
     style="display:inline;opacity:0.97000002"
     sodipodi:insensitive="true"
     transform="translate(-18.683854,-111.95715)">
    <path
       style="opacity:1;vector-effect:none;fill:#000000;fill-opacity:1;stroke:none;stroke-width:0.125;stroke-linecap:round;stroke-linejoin:round;stroke-miterlimit:4;stroke-dasharray:none;stroke-dashoffset:0;stroke-opacity:1"
       d="m 23.8125,117.08333 c -0.0035,3.52553 0.0064,7.06087 -0.0031,10.58159 0,2.90748 2.385375,5.29182 5.292859,5.29182 2.907483,0 5.295958,-2.38434 5.295958,-5.29182 0,-2.90748 -2.388475,-5.29182 -5.295958,-5.29182 -0.962077,0 -1.86424,0.2655 -2.644363,0.72025 v -6.01002 z m 5.289759,7.93722 c 1.475552,0 2.643329,1.16881 2.643329,2.64437 0,1.47555 -1.167777,2.64436 -2.643329,2.64436 -1.475555,0 -2.64023,-1.16881 -2.64023,-2.64436 0,-1.47556 1.164675,-2.64437 2.64023,-2.64437 z"
       id="rect819"
       inkscape:connector-curvature="0"
       sodipodi:nodetypes="ccssscccsssss"
       inkscape:label="b" />
    <path
       style="opacity:1;vector-effect:none;fill:#000000;fill-opacity:1;stroke:none;stroke-width:0.125;stroke-linecap:round;stroke-linejoin:round;stroke-miterlimit:4;stroke-dasharray:none;stroke-dashoffset:0;stroke-opacity:1"
       d="m 39.6875,122.3692 c -1.484642,0 -2.854598,0.50174 -3.961893,1.33612 v -1.33406 h -2.645395 v 6.42956 c -0.0016,0.0616 -0.0094,0.12178 -0.0094,0.18397 h 0.0094 v 3.9698 h 2.645395 v -4.03077 c 0.03243,-2.17706 1.776432,-3.90299 3.961893,-3.90299 z"
       id="rect826"
       inkscape:connector-curvature="0"
       sodipodi:nodetypes="cccccccccccc"
       inkscape:label="r" />
    <path
       style="opacity:1;vector-effect:none;fill:#000000;fill-opacity:1;stroke:none;stroke-width:0.125;stroke-linecap:round;stroke-linejoin:round;stroke-miterlimit:4;stroke-dasharray:none;stroke-dashoffset:0;stroke-opacity:1"
       d="m 43.656233,122.37551 c -2.907485,0 -5.295799,2.38471 -5.295799,5.29219 0,2.90748 2.388314,5.29166 5.295799,5.29166 0.456864,0 0.899726,-0.0615 1.322917,-0.17311 v -2.82464 c -0.387599,0.22209 -0.837745,0.35037 -1.322917,0.35037 -1.475552,0 -2.643248,-1.16872 -2.643248,-2.64428 0,-1.47555 1.167696,-2.64429 2.643248,-2.64429 1.475555,0 2.64015,1.16874 2.64015,2.64429 h 0.0057 v 5.29063 h 2.639632 c 0,0 -0.0024,-1.76991 0.0072,-5.29063 0,-2.90748 -2.385216,-5.29219 -5.292701,-5.29219 z"
       id="rect819-6"
       inkscape:connector-curvature="0"
       inkscape:label="a" />
    <path
       style="opacity:1;vector-effect:none;fill:#000000;fill-opacity:1;stroke:none;stroke-width:0.1;stroke-linecap:butt;stroke-linejoin:round;stroke-miterlimit:4;stroke-dasharray:none;stroke-dashoffset:0;stroke-opacity:1"
       d="m 47.625,122.37499 v 5.23121 c -2.4e-4,0.0206 -0.0021,0.0409 -0.0021,0.0615 h 0.0021 v 5.29063 h 2.645834 v -5.29063 h 0.0021 c 0,-0.94664 0.502582,-1.81595 1.322401,-2.28927 0.819817,-0.47331 1.822916,-0.47331 2.642732,0 0.81982,0.47332 1.322401,1.34263 1.322401,2.28927 h 0.002 v 5.29063 h 2.645834 v -5.29063 h 0.0021 c 0,-0.94664 0.502582,-1.81593 1.322401,-2.28927 0.819817,-0.4733 1.822916,-0.4733 2.642732,0 0.81982,0.47334 1.322401,1.34263 1.322401,2.28927 h 0.002 v 5.29063 h 2.645833 v -5.29063 h 0.0021 c 0,-1.88915 -1.010298,-3.63965 -2.646349,-4.58421 -0.818007,-0.47231 -1.732666,-0.70849 -2.647384,-0.70849 -0.914717,0 -1.829358,0.23618 -2.647384,0.70849 -0.503676,0.29079 -0.947525,0.65852 -1.321366,1.08261 -0.37384,-0.42409 -0.817689,-0.79182 -1.321366,-1.08261 -0.818026,-0.4723 -1.732666,-0.70849 -2.647384,-0.70849 -0.914117,0 -1.828218,0.23578 -2.645833,0.70745 v -0.70746 z"
       id="rect909"
       inkscape:connector-curvature="0"
       inkscape:label="m" />
  </g>
  <g
     inkscape:groupmode="layer"
     id="layer2"
     inkscape:label="Calque 2"
     transform="translate(-18.683854,-111.95715)">
    <path
       style="color:#000000;font-style:normal;font-variant:normal;font-weight:normal;font-stretch:normal;font-size:medium;line-height:normal;font-family:sans-serif;font-variant-ligatures:normal;font-variant-position:normal;font-variant-caps:normal;font-variant-numeric:normal;font-variant-alternates:normal;font-feature-settings:normal;text-indent:0;text-align:start;text-decoration:none;text-decoration-line:none;text-decoration-style:solid;text-decoration-color:#000000;letter-spacing:normal;word-spacing:normal;text-transform:none;writing-mode:lr-tb;direction:ltr;text-orientation:mixed;dominant-baseline:auto;baseline-shift:baseline;text-anchor:start;white-space:normal;shape-padding:0;clip-rule:nonzero;display:inline;overflow:visible;visibility:visible;opacity:1;isolation:auto;mix-blend-mode:normal;color-interpolation:sRGB;color-interpolation-filters:linearRGB;solid-color:#000000;solid-opacity:1;vector-effect:none;fill:#ffffff;fill-opacity:1;fill-rule:nonzero;stroke:#ffffff;stroke-width:0.47244096;stroke-linecap:round;stroke-linejoin:round;stroke-miterlimit:4;stroke-dasharray:none;stroke-dashoffset:0;stroke-opacity:1;color-rendering:auto;image-rendering:auto;shape-rendering:auto;text-rendering:auto;enable-background:accumulate"
       d="m 89.976562,442.2793 a 0.23624409,0.23624409 0 0 0 -0.21289,0.23632 c -0.01323,13.32545 0.02223,26.68836 -0.01367,39.99415 0,11.11812 9.122176,20.24218 20.240228,20.24218 5.82602,0 11.09217,-2.52131 14.80079,-6.50586 V 502.5 a 0.23624409,0.23624409 0 0 0 0.23632,0.23633 h 9.99414 A 0.23624409,0.23624409 0 0 0 135.25781,502.5 v -15.22852 c 0.10621,-7.12961 5.14036,-12.94686 11.88867,-14.24414 -1.5283,2.83677 -2.40234,6.07014 -2.40234,9.49805 0,11.11827 9.13781,20.23438 20.25586,20.23438 1.74793,0 3.43857,-0.23939 5.05664,-0.66602 a 0.23624409,0.23624409 0 0 0 0.17774,-0.22852 v -10.67382 a 0.23624409,0.23624409 0 0 0 -0.35547,-0.20703 c -1.43054,0.81966 -3.08683,1.29296 -4.87891,1.29296 -5.45216,0 -9.75195,-4.29964 -9.75195,-9.75195 0,-5.45227 4.2998,-9.75976 9.75195,-9.75977 5.45217,0 9.74414,4.30716 9.74414,9.75977 a 0.23624409,0.23624409 0 0 0 0.0215,0.10352 v 19.88671 a 0.23624409,0.23624409 0 0 0 0.23633,0.23633 h 9.97266 a 0.23624409,0.23624409 0 0 0 0.13672,-0.043 h 4.89062 a 0.18899528,0.18899528 0 0 0 0.18555,-0.19336 V 482.5918 a 0.18899528,0.18899528 0 0 0 0,-0.0215 0.18899528,0.18899528 0 0 0 0.008,-0.0449 c 0,-3.51095 1.86748,-6.73277 4.90821,-8.48828 3.0407,-1.75552 6.7542,-1.75552 9.79492,0 3.04072,1.75551 4.90234,4.97733 4.90234,8.48828 a 0.18899528,0.18899528 0 0 0 0.008,0.0371 0.18899528,0.18899528 0 0 0 0,0.0156 v 19.93946 A 0.18899528,0.18899528 0 0 0 210,502.70898 h 10.00195 a 0.18899528,0.18899528 0 0 0 0.18555,-0.1914 v -19.92383 a 0.18899528,0.18899528 0 0 0 0,-0.0234 0.18899528,0.18899528 0 0 0 0.008,-0.0449 c 0,-3.51095 1.86747,-6.73265 4.90821,-8.48828 3.0407,-1.75552 6.75617,-1.75552 9.79687,0 3.04074,1.75563 4.90039,4.97733 4.90039,8.48828 a 0.18899528,0.18899528 0 0 0 0.008,0.0391 0.18899528,0.18899528 0 0 0 0,0.0156 v 19.9375 A 0.18899528,0.18899528 0 0 0 240,502.70898 h 10.00391 a 0.18899528,0.18899528 0 0 0 0.18359,-0.1914 v -19.92383 a 0.18899528,0.18899528 0 0 0 0,-0.0234 0.18899528,0.18899528 0 0 0 0.008,-0.043 c 0,-7.20748 -3.84992,-13.89239 -10.09179,-17.49609 -3.12028,-1.80197 -6.61574,-2.70117 -10.10547,-2.70117 -3.48973,0 -6.97671,0.8992 -10.09766,2.70117 -1.86605,1.07735 -3.49469,2.45683 -4.89453,4.01563 -1.40065,-1.56057 -3.03462,-2.93733 -4.90234,-4.01563 -3.12095,-1.80193 -6.61574,-2.70117 -10.10547,-2.70117 -3.39059,0 -6.75816,0.92793 -9.81055,2.6289 v -2.43945 a 0.18899528,0.18899528 0 0 0 -0.18359,-0.19141 H 180 a 0.18899528,0.18899528 0 0 0 -0.0215,0 0.18899528,0.18899528 0 0 0 -0.16993,0.19141 v 6.29883 c -3.68567,-3.96716 -8.91762,-6.48254 -14.71289,-6.51172 a 0.23624409,0.23624409 0 0 0 -0.0449,-0.0156 0.23624409,0.23624409 0 0 0 -0.0508,-0.008 0.23624409,0.23624409 0 0 0 -0.0215,0 0.23624409,0.23624409 0 0 0 -0.0234,0.008 0.23624409,0.23624409 0 0 0 -0.0508,0.0156 c -5.76703,0.0291 -10.98131,2.51962 -14.66797,6.45313 v -6.26172 A 0.23624409,0.23624409 0 0 0 150,462.26172 c -5.51282,0 -10.57981,1.86373 -14.74219,4.89453 v -4.65039 a 0.23624409,0.23624409 0 0 0 -0.23633,-0.23633 h -9.99414 a 0.23624409,0.23624409 0 0 0 -0.23632,0.23633 v 6.26953 c -3.70862,-3.9826 -8.97477,-6.5 -14.80079,-6.5 -3.55077,0 -6.85041,1.02979 -9.75976,2.6582 V 442.51562 A 0.23624409,0.23624409 0 0 0 99.994141,442.2793 H 90 a 0.23624409,0.23624409 0 0 0 -0.02344,0 z m 0.259766,0.47265 h 9.523438 v 22.48438 a 0.23624409,0.23624409 0 0 0 0.353514,0.19922 c 2.9146,-1.69898 6.28422,-2.6875 9.87695,-2.6875 5.87315,0 11.16547,2.61773 14.80079,6.72656 v 17.33203 c -0.006,0.21506 -0.0371,0.44123 -0.0371,0.69336 a 0.23624409,0.23624409 0 0 0 0.0371,0.11719 v 7.93164 c -3.63532,4.11082 -8.92764,6.73047 -14.80079,6.73047 -10.859765,0 -19.769527,-8.90982 -19.769527,-19.76953 0.03553,-13.22827 0.0031,-26.51247 0.01563,-39.75782 z m 89.955082,19.95313 h 9.61914 v 2.48633 a 0.18899528,0.18899528 0 0 0 0.28711,0.16211 c 3.061,-1.76584 6.47795,-2.64844 9.90039,-2.64844 3.42467,0 6.85151,0.88803 9.91406,2.65625 1.88555,1.08862 3.54561,2.46488 4.94531,4.05273 a 0.18899528,0.18899528 0 0 0 0.28711,0 c 1.39971,-1.58785 3.06172,-2.96411 4.94727,-4.05273 3.06254,-1.76825 6.48158,-2.65625 9.90625,-2.65625 3.42467,0 6.85222,0.88803 9.91406,2.65625 6.11391,3.52981 9.88463,10.0691 9.89844,17.12695 0,0.002 -1e-5,0.004 0,0.008 a 0.18899528,0.18899528 0 0 0 0,0.0137 0.18899528,0.18899528 0 0 0 0,0.0156 v 19.80664 h -9.61914 v -19.80664 a 0.18899528,0.18899528 0 0 0 -0.0293,-0.0957 0.18899528,0.18899528 0 0 0 -0.0137,-0.0312 c -0.0473,-3.59214 -1.93943,-6.8955 -5.05664,-8.69532 -3.15632,-1.82222 -7.02337,-1.82222 -10.17969,0 -3.12204,1.80261 -5.02292,5.1123 -5.06445,8.71094 a 0.18899528,0.18899528 0 0 0 -0.0371,0.11133 v 19.80469 h -9.61914 v -19.80469 a 0.18899528,0.18899528 0 0 0 -0.043,-0.12695 0.18899528,0.18899528 0 0 0 -0.008,-0.006 c -0.0499,-3.58923 -1.93572,-6.89097 -5.05078,-8.68946 -3.15633,-1.82226 -7.02141,-1.82226 -10.17773,0 -3.12204,1.80254 -5.02292,5.1123 -5.06445,8.71094 a 0.18899528,0.18899528 0 0 0 -0.0371,0.11133 v 19.80469 h -4.59961 c -1.2e-4,-0.12292 -0.007,-6.62188 0.0293,-19.80469 0,-5.07883 -1.91936,-9.72339 -5.04882,-13.28516 z m -54.92774,0.0351 h 9.52149 v 4.80665 a 0.23624409,0.23624409 0 0 0 0.38476,0.18359 c 4.08507,-3.07824 9.13094,-4.90422 14.59375,-4.95899 v 6.50782 c -0.88415,1.01045 -1.66978,2.10501 -2.34179,3.27539 -7.13302,1.19898 -12.52546,7.23999 -12.63672,14.70898 a 0.23624409,0.23624409 0 0 0 0,0.008 v 14.99219 h -9.52149 v -6.53711 c 3.09027,-3.55642 4.98242,-8.17537 4.98242,-13.21679 0,-5.04143 -1.89215,-9.6601 -4.98242,-13.21485 z m 39.72852,0.0156 a 0.23624409,0.23624409 0 0 0 0.008,0 c 5.88154,0 11.17684,2.62706 14.80859,6.74805 v 12.78515 c -7.9e-4,0.068 -0.008,0.14713 -0.008,0.23633 a 0.18899528,0.18899528 0 0 0 0.008,0.0371 0.18899528,0.18899528 0 0 0 0,0.0156 v 19.70118 h -4.57031 v -19.75391 a 0.23624409,0.23624409 0 0 0 -0.0957,-0.18555 c -0.1126,-5.59895 -4.51338,-10.04676 -10.14277,-10.04676 -5.70163,0 -10.22461,4.53093 -10.22461,10.23242 0,5.70153 4.52299,10.22266 10.22461,10.22266 1.74525,0 3.33546,-0.50186 4.76172,-1.25391 v 10.16406 c -1.52918,0.38899 -3.11732,0.62696 -4.76172,0.62696 -10.85978,0 -19.7832,-8.90024 -19.7832,-19.75977 0,-3.47263 0.92102,-6.74169 2.51758,-9.58789 0.73937,-0.11186 1.49239,-0.1875 2.26562,-0.1875 a 0.23624409,0.23624409 0 0 0 0.23633,-0.23633 v -3.06836 c 3.63277,-4.08535 8.90528,-6.68723 14.75586,-6.68945 z m 15.19922,7.16992 c 2.85311,3.42914 4.57812,7.8248 4.57812,12.59961 -0.0359,13.14973 -0.0297,19.59766 -0.0293,19.75391 h -4.54882 v -19.75391 a 0.18899528,0.18899528 0 0 0 -0.0137,-0.0527 c 8e-5,-0.002 -8e-5,-0.004 0,-0.008 0.002,-0.0537 0.0129,-0.11159 0.0137,-0.17773 z m -30.42774,0.041 v 2.35547 c -0.5888,0.009 -1.16629,0.0602 -1.73633,0.13281 0.52164,-0.87085 1.09146,-1.7097 1.73633,-2.48828 z m -24.5,0.0352 c 2.81237,3.41454 4.50977,7.77419 4.50977,12.50782 0,4.73364 -1.69738,9.09559 -4.50977,12.51171 V 487.5 a 0.23624409,0.23624409 0 0 0 -0.0293,-0.11133 c 0.007,-0.18368 0.024,-0.3654 0.0293,-0.57422 a 0.23624409,0.23624409 0 0 0 0,-0.008 z m -15.27344,2.27735 c -5.70164,0 -10.216793,4.52924 -10.216792,10.23047 0,5.70119 4.515152,10.23046 10.216792,10.23046 5.70164,0 10.23047,-4.52893 10.23047,-10.23046 0,-5.70154 -4.52883,-10.23047 -10.23047,-10.23047 z m 0,0.47265 c 5.45215,0 9.75782,4.30554 9.75782,9.75782 0,5.45227 -4.30567,9.75976 -9.75782,9.75976 -5.45215,0 -9.74414,-4.30719 -9.74414,-9.75976 0,-5.45262 4.29199,-9.75782 9.74414,-9.75782 z"
       transform="scale(0.26458333)"
       id="rect819-68"
       inkscape:connector-curvature="0" />
    <text
       xml:space="preserve"
       style="font-style:normal;font-variant:normal;font-weight:normal;font-stretch:normal;font-size:2.06369328px;line-height:125%;font-family:'URW Gothic L';-inkscape-font-specification:'URW Gothic L';letter-spacing:0px;word-spacing:0px;fill:#000000;fill-opacity:1;stroke:none;stroke-width:0.15477701px;stroke-linecap:butt;stroke-linejoin:miter;stroke-opacity:1"
       x="23.870346"
       y="136.67593"
       id="text1057"
       transform="scale(0.99999871,1.0000013)"><tspan
         sodipodi:role="line"
         id="tspan1055"
         x="23.870346"
         y="136.67593"
         style="font-style:normal;font-variant:normal;font-weight:normal;font-stretch:normal;font-family:'URW Gothic L';-inkscape-font-specification:'URW Gothic L';letter-spacing:0.48154166px;fill:#000000;fill-opacity:1;stroke:none;stroke-width:0.15477701px">brain random access memory</tspan></text>
  </g>
</svg>
