<?xml version="1.0" encoding="UTF-8" standalone="no"?>
<!-- Created with Inkscape (http://www.inkscape.org/) -->

<svg
   xmlns:dc="http://purl.org/dc/elements/1.1/"
   xmlns:cc="http://creativecommons.org/ns#"
   xmlns:rdf="http://www.w3.org/1999/02/22-rdf-syntax-ns#"
   xmlns:svg="http://www.w3.org/2000/svg"
   xmlns="http://www.w3.org/2000/svg"
   xmlns:sodipodi="http://sodipodi.sourceforge.net/DTD/sodipodi-0.dtd"
   xmlns:inkscape="http://www.inkscape.org/namespaces/inkscape"
   width="22.183666mm"
   height="23.166664mm"
   viewBox="0 0 22.183666 23.166665"
   version="1.1"
   id="svg8"
   inkscape:version="0.92.4 5da689c313, 2019-01-14"
   sodipodi:docname="page1-background.svg"
   inkscape:export-filename="/home/denissalem/hd_storage/works/bram/home-site/page1-background-3.png"
   inkscape:export-xdpi="2345.2061"
   inkscape:export-ydpi="2345.2061">
  <defs
     id="defs2" />
  <sodipodi:namedview
     id="base"
     pagecolor="#ffffff"
     bordercolor="#666666"
     borderopacity="1.0"
     inkscape:pageopacity="0.0"
     inkscape:pageshadow="2"
     inkscape:zoom="5.6568543"
     inkscape:cx="79.311787"
     inkscape:cy="58.52877"
     inkscape:document-units="mm"
     inkscape:current-layer="layer1"
     showgrid="true"
     fit-margin-top="1"
     fit-margin-left="1"
     fit-margin-right="0"
     fit-margin-bottom="1"
     inkscape:snap-center="true"
     inkscape:snap-others="true"
     inkscape:snap-smooth-nodes="false"
     inkscape:object-nodes="false"
     inkscape:snap-nodes="false"
     inkscape:snap-bbox="true"
     inkscape:snap-global="true"
     inkscape:window-width="1916"
     inkscape:window-height="1043"
     inkscape:window-x="0"
     inkscape:window-y="18"
     inkscape:window-maximized="0">
    <inkscape:grid
       type="xygrid"
       id="grid815"
       originx="-34.874999"
       originy="-184.20836" />
  </sodipodi:namedview>
  <metadata
     id="metadata5">
    <rdf:RDF>
      <cc:Work
         rdf:about="">
        <dc:format>image/svg+xml</dc:format>
        <dc:type
           rdf:resource="http://purl.org/dc/dcmitype/StillImage" />
        <dc:title></dc:title>
      </cc:Work>
    </rdf:RDF>
  </metadata>
  <g
     inkscape:label="Calque 1"
     inkscape:groupmode="layer"
     id="layer1"
     transform="translate(-34.875,-89.624995)">
    <path
       style="display:none;opacity:0.96000001;vector-effect:none;fill:#229b2b;fill-opacity:1;stroke:none;stroke-width:0.12499999;stroke-linecap:butt;stroke-linejoin:round;stroke-miterlimit:4;stroke-dasharray:none;stroke-dashoffset:0;stroke-opacity:1"
       d="m 46.4752,90.624995 a 10.583333,10.583333 0 0 0 -5.099431,1.322916 H 51.59375 a 10.583333,10.583333 0 0 0 -5.066874,-1.322916 z m -8.233089,3.96875 a 10.583333,10.583333 0 0 0 -0.921391,1.322916 h 18.304825 a 10.583333,10.583333 0 0 0 -0.91984,-1.322916 z m -1.993676,3.96875 a 10.583333,10.583333 0 0 0 -0.263551,1.322916 h 20.977532 a 10.583333,10.583333 0 0 0 -0.260967,-1.322916 z m -0.259416,3.968745 a 10.583333,10.583333 0 0 0 0.247013,1.32292 h 20.472651 a 10.583333,10.583333 0 0 0 0.249597,-1.32292 z m 1.340485,3.96875 a 10.583333,10.583333 0 0 0 0.88677,1.32292 h 16.508034 a 10.583333,10.583333 0 0 0 0.891421,-1.32292 z m 4.052467,3.96875 a 10.583333,10.583333 0 0 0 5.093229,1.32292 10.583333,10.583333 0 0 0 5.100982,-1.32292 z"
       id="path884"
       inkscape:connector-curvature="0"
       inkscape:export-xdpi="1227.6001"
       inkscape:export-ydpi="1227.6001" />
    <path
       style="display:none;opacity:1;vector-effect:none;fill:#229b2b;fill-opacity:1;stroke:none;stroke-width:0.12499999;stroke-linecap:butt;stroke-linejoin:round;stroke-miterlimit:4;stroke-dasharray:none;stroke-dashoffset:0;stroke-opacity:1"
       d="m 41.375905,91.948732 a 10.583333,10.583333 0 0 0 -1.873271,1.32292 h 13.954188 a 10.583333,10.583333 0 0 0 -1.862937,-1.32292 z m -4.055049,3.96875 a 10.583333,10.583333 0 0 0 -0.630453,1.32292 H 56.262852 A 10.583333,10.583333 0 0 0 55.62568,95.917482 Z M 35.98502,99.886234 A 10.583333,10.583333 0 0 0 35.892,101.20912 h 21.166667 a 10.583333,10.583333 0 0 0 -0.09612,-1.322886 z m 0.251147,3.968716 a 10.583333,10.583333 0 0 0 0.451652,1.32292 h 19.572448 a 10.583333,10.583333 0 0 0 0.448551,-1.32292 z m 1.980242,3.96875 a 10.583333,10.583333 0 0 0 1.27744,1.32292 h 13.954189 a 10.583333,10.583333 0 0 0 1.276405,-1.32292 z"
       id="path884-3"
       inkscape:connector-curvature="0" />
    <path
       style="display:inline;opacity:1;vector-effect:none;fill:#229b2b;fill-opacity:1;stroke:none;stroke-width:0.12499999;stroke-linecap:butt;stroke-linejoin:round;stroke-miterlimit:4;stroke-dasharray:none;stroke-dashoffset:0;stroke-opacity:1"
       d="m 39.478397,93.270797 a 10.583333,10.583333 0 0 0 -1.253154,1.322917 h 16.463595 a 10.583333,10.583333 0 0 0 -1.243852,-1.322917 z m -2.823599,3.96875 a 10.583333,10.583333 0 0 0 -0.42323,1.322917 H 56.684582 A 10.583333,10.583333 0 0 0 56.262386,97.239547 Z M 35.875,101.20821 a 10.583333,10.583333 0 0 0 0.09715,1.32291 h 20.969261 a 10.583333,10.583333 0 0 0 0.100253,-1.32291 z m 0.77928,3.96875 a 10.583333,10.583333 0 0 0 0.658357,1.32291 h 18.286224 a 10.583333,10.583333 0 0 0 0.663006,-1.32291 z m 2.817399,3.96875 a 10.583333,10.583333 0 0 0 1.893425,1.32291 h 10.19421 a 10.583333,10.583333 0 0 0 1.879989,-1.32291 z"
       id="path884-0"
       inkscape:connector-curvature="0" />
  </g>
</svg>
